/* XPM */
static const char * cycle_xpm[] = {
"12 16 4 1",
" 	c #040404",
".	c None",
"X	c white",
"O	c black",
"............",
"............",
"............",
"............",
"............",
"............",
"..OOOOOOO...",
"..O.....O...",
"..O.....O...",
"..O.....O...",
"..O.....O...",
"..O.....O...",
"..O.....O...",
"..O.....O...",
"OOO.....OOOO",
"............"};
