/* XPM */
static const char * datamem_xpm[] = {
"12 16 4 1",
" 	c #040404",
".	c None",
"X	c white",
"O	c black",
"............",
"............",
"............",
".OOOOO......",
".O....OO....",
".O......O...",
".O......O...",
".O......O...",
".O.......O..",
".O.......O..",
".O.......O..",
".O.......O..",
".O......O...",
".O......O...",
".O....OO....",
".OOOOO......"};
