/* XPM */
static const char * readimem_xpm[] = {
"12 16 4 1",
" 	c #040404",
".	c None",
"X	c white",
"O	c black",
"...OOO......",
"....O.......",
"....O.......",
"....O.......",
"...OOO......",
".OOOOOOO....",
".O.....OOOOO",
".O.....O...O",
".O.....O..O.",
".O.....O..O.",
".O.....O.OX.",
".O.....O.O..",
".O.....OO...",
".O.....OO...",
"..OOOOO.....",
"............"};
