/* XPM */
static const char * readdmem_xpm[] = {
"12 16 4 1",
" 	c #040404",
".	c None",
"X	c white",
"O	c black",
"...OO.......",
"...O.O......",
"...O..O.....",
"...O.O......",
"...OO.......",
".OOOOOOO....",
".O.....OOOOO",
".O.....O...O",
".O.....O..O.",
".O.....O..O.",
".O.....O.OX.",
".O.....O.O..",
".O.....OO...",
".O.....OO...",
"..OOOOO.....",
"............"};
