/* XPM */
static const char * regs_xpm[] = {
"12 16 4 1",
" 	c #040404",
".	c None",
"X	c white",
"O	c black",
"............",
"............",
"............",
".OOOOO......",
".O....OO....",
".O......O...",
".O......O...",
".O......O...",
".O....OO....",
".OOOOO......",
".O....O.....",
".O.....O....",
".O.....O....",
".O......O...",
".O......O...",
".O......O..."};
