/* XPM */
static const char * reset_xpm[] = {
"12 16 4 1",
" 	c #040404",
".	c None",
"X	c white",
"O	c black",
"............",
"............",
"............",
"............",
"............",
"............",
"OOO....O.OOO",
"O..O..O...O.",
"O..O.O....O.",
"O..O.O....O.",
"OOO...O...O.",
"OOO...O...O.",
"O..O...O..O.",
"O..O...O..O.",
"O..O...O..O.",
"O..O.OO...O."};
